SplineFontDB: 3.2
FontName: NotoSansRunic-Regular
FullName: Noto Sans Runic Regular
FamilyName: Noto Sans Runic
Weight: Book
Copyright: Copyright 2017 Google Inc. All Rights Reserved.
Version: 2.000
ItalicAngle: 0
UnderlinePosition: -125
UnderlineWidth: 50
Ascent: 800
Descent: 200
InvalidEm: 0
sfntRevision: 0x00020000
LayerCount: 2
Layer: 0 1 "+BBcEMAQ0BD0EOAQ5 +BD8EOwQwBD0A" 1
Layer: 1 1 "+BB8ENQRABDUENAQ9BDgEOQAA +BD8EOwQwBD0A" 0
XUID: [1021 59 1751208496 17282]
StyleMap: 0x0040
FSType: 0
OS2Version: 4
OS2_WeightWidthSlopeOnly: 1
OS2_UseTypoMetrics: 0
CreationTime: 1498154850
ModificationTime: 1623780082
PfmFamily: 17
TTFWeight: 400
TTFWidth: 5
LineGap: 0
VLineGap: 0
Panose: 5 11 1 2 4 5 4 2 2 4
OS2TypoAscent: 1069
OS2TypoAOffset: 0
OS2TypoDescent: -293
OS2TypoDOffset: 0
OS2TypoLinegap: 0
OS2WinAscent: 1069
OS2WinAOffset: 0
OS2WinDescent: 293
OS2WinDOffset: 0
HheadAscent: 1069
HheadAOffset: 0
HheadDescent: -293
HheadDOffset: 0
OS2SubXSize: 650
OS2SubYSize: 600
OS2SubXOff: 0
OS2SubYOff: 75
OS2SupXSize: 650
OS2SupYSize: 600
OS2SupXOff: 0
OS2SupYOff: 350
OS2StrikeYSize: 50
OS2StrikeYPos: 322
OS2CapHeight: 714
OS2XHeight: 536
OS2Vendor: 'GOOG'
OS2CodePages: 00000001.00000000
OS2UnicodeRanges: 00000001.00000000.00000000.00000000
MarkAttachClasses: 1
DEI: 91125
ShortTable: maxp 16
  1
  0
  94
  63
  6
  0
  0
  1
  0
  0
  0
  0
  0
  0
  0
  0
EndShort

StartChar: .notdef
Encoding: 65536 -1 0
Width: 600
Flags: W
LayerCount: 2
Fore
SplineSet
94 0 m 1,0,-1
 94 714 l 1,1,-1
 505 714 l 1,2,-1
 505 0 l 1,3,-1
 94 0 l 1,0,-1
145 51 m 1,4,-1
 454 51 l 1,5,-1
 454 663 l 1,6,-1
 145 663 l 1,7,-1
 145 51 l 1,4,-1
EndSplineSet
Validated: 1
EndChar

StartChar: uni16A0
Encoding: 5792 5792 5
Width: 681
Flags: W
LayerCount: 2
Fore
SplineSet
97 0 m 1,0,-1
 97 714 l 1,1,-1
 187 714 l 1,2,-1
 187 520 l 1,3,4
 237 520 237 520 273.5 546 c 128,-1,5
 310 572 310 572 330 614 c 128,-1,6
 350 656 350 656 350 704 c 2,7,-1
 350 714 l 1,8,-1
 445 714 l 1,9,-1
 445 703 l 2,10,11
 445 648 445 648 424.5 600.5 c 128,-1,12
 404 553 404 553 368 517 c 128,-1,13
 332 481 332 481 285.5 460.5 c 128,-1,14
 239 440 239 440 187 440 c 1,15,-1
 187 329 l 1,16,17
 267 329 267 329 336.5 355 c 128,-1,18
 406 381 406 381 458.5 430 c 128,-1,19
 511 479 511 479 541 548 c 128,-1,20
 571 617 571 617 571 704 c 2,21,-1
 571 714 l 1,22,-1
 666 714 l 1,23,-1
 666 703 l 2,24,25
 666 597 666 597 630 513 c 128,-1,26
 594 429 594 429 529 370 c 128,-1,27
 464 311 464 311 376.5 280 c 128,-1,28
 289 249 289 249 187 249 c 1,29,-1
 187 0 l 1,30,-1
 97 0 l 1,0,-1
EndSplineSet
Validated: 1
EndChar

StartChar: uni16A1
Encoding: 5793 5793 6
Width: 706
Flags: W
LayerCount: 2
Fore
SplineSet
271 613 m 0,0,1
 249 613 249 613 234 627 c 128,-1,2
 219 641 219 641 219 669 c 0,3,4
 219 698 219 698 234 711.5 c 128,-1,5
 249 725 249 725 271 725 c 0,6,7
 291 725 291 725 306.5 711.5 c 128,-1,8
 322 698 322 698 322 669 c 0,9,10
 322 641 322 641 306.5 627 c 128,-1,11
 291 613 291 613 271 613 c 0,0,1
97 0 m 1,12,-1
 97 714 l 1,13,-1
 187 714 l 1,14,-1
 187 520 l 1,15,16
 249 520 249 520 291 546 c 128,-1,17
 333 572 333 572 354 614 c 128,-1,18
 375 656 375 656 375 704 c 2,19,-1
 375 714 l 1,20,-1
 470 714 l 1,21,-1
 470 703 l 2,22,23
 470 630 470 630 433 570.5 c 128,-1,24
 396 511 396 511 332.5 475.5 c 128,-1,25
 269 440 269 440 187 440 c 1,26,-1
 187 329 l 1,27,28
 305 329 305 329 397 374.5 c 128,-1,29
 489 420 489 420 542.5 504.5 c 128,-1,30
 596 589 596 589 596 704 c 2,31,-1
 596 714 l 1,32,-1
 691 714 l 1,33,-1
 691 703 l 2,34,35
 691 597 691 597 654.5 513 c 128,-1,36
 618 429 618 429 551 370 c 128,-1,37
 484 311 484 311 391.5 280 c 128,-1,38
 299 249 299 249 187 249 c 1,39,-1
 187 0 l 1,40,-1
 97 0 l 1,12,-1
EndSplineSet
Validated: 1
EndChar

StartChar: uni16A2
Encoding: 5794 5794 7
Width: 684
Flags: W
LayerCount: 2
Fore
SplineSet
97 0 m 1,0,-1
 97 714 l 1,1,-1
 192 714 l 2,2,3
 266 714 266 714 338 694 c 128,-1,4
 410 674 410 674 468.5 631.5 c 128,-1,5
 527 589 527 589 562 521.5 c 128,-1,6
 597 454 597 454 597 358 c 2,7,-1
 597 0 l 1,8,-1
 504 0 l 1,9,-1
 504 353 l 2,10,11
 504 447 504 447 461 505.5 c 128,-1,12
 418 564 418 564 346 591.5 c 128,-1,13
 274 619 274 619 187 619 c 1,14,-1
 187 0 l 1,15,-1
 97 0 l 1,0,-1
EndSplineSet
Validated: 1
EndChar

StartChar: uni16A3
Encoding: 5795 5795 8
Width: 599
Flags: W
LayerCount: 2
Fore
SplineSet
97 0 m 1,0,-1
 97 714 l 1,1,-1
 208 714 l 1,2,-1
 599 0 l 1,3,-1
 494 0 l 1,4,-1
 181 594 l 1,5,6
 183 569 183 569 185 535 c 128,-1,7
 187 501 187 501 187 481 c 2,8,-1
 187 0 l 1,9,-1
 97 0 l 1,0,-1
267 0 m 1,10,-1
 267 184 l 1,11,-1
 346 184 l 1,12,-1
 346 0 l 1,13,-1
 267 0 l 1,10,-1
EndSplineSet
Validated: 1
EndChar

StartChar: uni16A4
Encoding: 5796 5796 9
Width: 684
Flags: W
LayerCount: 2
Fore
SplineSet
97 0 m 1,0,-1
 97 714 l 1,1,-1
 192 714 l 2,2,3
 266 714 266 714 338 694 c 128,-1,4
 410 674 410 674 468.5 631.5 c 128,-1,5
 527 589 527 589 562 521.5 c 128,-1,6
 597 454 597 454 597 358 c 2,7,-1
 597 0 l 1,8,-1
 504 0 l 1,9,-1
 504 353 l 2,10,11
 504 447 504 447 461 505.5 c 128,-1,12
 418 564 418 564 346 591.5 c 128,-1,13
 274 619 274 619 187 619 c 1,14,-1
 187 0 l 1,15,-1
 97 0 l 1,0,-1
340 282 m 0,16,17
 318 282 318 282 303 296 c 128,-1,18
 288 310 288 310 288 338 c 0,19,20
 288 367 288 367 303 380.5 c 128,-1,21
 318 394 318 394 340 394 c 0,22,23
 360 394 360 394 375.5 380.5 c 128,-1,24
 391 367 391 367 391 338 c 0,25,26
 391 310 391 310 375.5 296 c 128,-1,27
 360 282 360 282 340 282 c 0,16,17
EndSplineSet
Validated: 1
EndChar

StartChar: uni16A5
Encoding: 5797 5797 10
Width: 684
Flags: W
LayerCount: 2
Fore
SplineSet
97 0 m 1,0,-1
 97 714 l 1,1,-1
 192 714 l 2,2,3
 266 714 266 714 338 694 c 128,-1,4
 410 674 410 674 468.5 631.5 c 128,-1,5
 527 589 527 589 562 521.5 c 128,-1,6
 597 454 597 454 597 358 c 2,7,-1
 597 0 l 1,8,-1
 509 0 l 1,9,-1
 509 353 l 2,10,11
 509 424 509 424 483.5 474 c 128,-1,12
 458 524 458 524 413 556.5 c 128,-1,13
 368 589 368 589 310 604 c 128,-1,14
 252 619 252 619 187 619 c 1,15,-1
 187 417 l 1,16,17
 243 417 243 417 289.5 396 c 128,-1,18
 336 375 336 375 364 327 c 128,-1,19
 392 279 392 279 392 198 c 2,20,-1
 392 0 l 1,21,-1
 304 0 l 1,22,-1
 304 182 l 2,23,24
 304 274 304 274 270.5 309.5 c 128,-1,25
 237 345 237 345 187 345 c 1,26,-1
 187 0 l 1,27,-1
 97 0 l 1,0,-1
EndSplineSet
Validated: 1
EndChar

StartChar: uni16A6
Encoding: 5798 5798 11
Width: 525
Flags: W
LayerCount: 2
Fore
SplineSet
97 0 m 1,0,-1
 97 714 l 1,1,-1
 182 714 l 1,2,-1
 182 626 l 1,3,4
 325 609 325 609 400 548 c 128,-1,5
 475 487 475 487 475 367 c 0,6,7
 475 289 475 289 450.5 237.5 c 128,-1,8
 426 186 426 186 384 155.5 c 128,-1,9
 342 125 342 125 290 109.5 c 128,-1,10
 238 94 238 94 182 88 c 1,11,-1
 182 0 l 1,12,-1
 97 0 l 1,0,-1
182 164 m 1,13,14
 247 175 247 175 291 193.5 c 128,-1,15
 335 212 335 212 357.5 251.5 c 128,-1,16
 380 291 380 291 380 364 c 0,17,18
 380 453 380 453 331.5 493.5 c 128,-1,19
 283 534 283 534 182 546 c 1,20,-1
 182 164 l 1,13,14
EndSplineSet
Validated: 1
EndChar

StartChar: uni16A7
Encoding: 5799 5799 12
Width: 525
Flags: W
LayerCount: 2
Fore
SplineSet
97 0 m 1,0,-1
 97 714 l 1,1,-1
 182 714 l 1,2,-1
 182 626 l 1,3,4
 325 609 325 609 400 548 c 128,-1,5
 475 487 475 487 475 367 c 0,6,7
 475 289 475 289 450.5 237.5 c 128,-1,8
 426 186 426 186 384 155.5 c 128,-1,9
 342 125 342 125 290 109.5 c 128,-1,10
 238 94 238 94 182 88 c 1,11,-1
 182 0 l 1,12,-1
 97 0 l 1,0,-1
182 164 m 1,13,14
 247 175 247 175 291 193.5 c 128,-1,15
 335 212 335 212 357.5 251.5 c 128,-1,16
 380 291 380 291 380 364 c 0,17,18
 380 453 380 453 331.5 493.5 c 128,-1,19
 283 534 283 534 182 546 c 1,20,-1
 182 164 l 1,13,14
276 303 m 0,21,22
 254 303 254 303 239 317 c 128,-1,23
 224 331 224 331 224 359 c 0,24,25
 224 388 224 388 239 401.5 c 128,-1,26
 254 415 254 415 276 415 c 0,27,28
 296 415 296 415 311.5 401.5 c 128,-1,29
 327 388 327 388 327 359 c 0,30,31
 327 331 327 331 311.5 317 c 128,-1,32
 296 303 296 303 276 303 c 0,21,22
EndSplineSet
Validated: 1
EndChar

StartChar: uni16A8
Encoding: 5800 5800 13
Width: 396
Flags: W
LayerCount: 2
Fore
SplineSet
97 0 m 1,0,-1
 97 714 l 1,1,-1
 187 714 l 1,2,-1
 355 615 l 1,3,-1
 320 555 l 1,4,-1
 187 632 l 1,5,-1
 187 553 l 1,6,-1
 355 454 l 1,7,-1
 320 394 l 1,8,-1
 187 471 l 1,9,-1
 187 0 l 1,10,-1
 97 0 l 1,0,-1
EndSplineSet
Validated: 1
EndChar

StartChar: uni16A9
Encoding: 5801 5801 14
Width: 589
Flags: W
LayerCount: 2
Fore
SplineSet
97 0 m 1,0,-1
 97 714 l 1,1,-1
 187 714 l 1,2,-1
 382 598 l 1,3,-1
 548 714 l 1,4,-1
 548 632 l 1,5,-1
 383 516 l 1,6,-1
 187 632 l 1,7,-1
 187 553 l 1,8,-1
 382 437 l 1,9,-1
 548 553 l 1,10,-1
 548 471 l 1,11,-1
 383 356 l 1,12,-1
 187 470 l 1,13,-1
 187 0 l 1,14,-1
 97 0 l 1,0,-1
EndSplineSet
Validated: 1
EndChar

StartChar: uni16AA
Encoding: 5802 5802 15
Width: 589
Flags: W
LayerCount: 2
Fore
SplineSet
97 0 m 1,0,-1
 97 714 l 1,1,-1
 187 714 l 1,2,-1
 382 598 l 1,3,-1
 548 714 l 1,4,-1
 548 632 l 1,5,-1
 383 516 l 1,6,-1
 187 632 l 1,7,-1
 187 553 l 1,8,-1
 382 437 l 1,9,-1
 382 354 l 1,10,-1
 187 470 l 1,11,-1
 187 0 l 1,12,-1
 97 0 l 1,0,-1
EndSplineSet
Validated: 1
EndChar

StartChar: uni16AB
Encoding: 5803 5803 16
Width: 556
Flags: W
LayerCount: 2
Fore
SplineSet
97 0 m 1,0,-1
 97 714 l 1,1,-1
 187 714 l 1,2,-1
 515 521 l 1,3,-1
 480 461 l 1,4,-1
 187 632 l 1,5,-1
 187 553 l 1,6,-1
 515 360 l 1,7,-1
 480 300 l 1,8,-1
 187 471 l 1,9,-1
 187 0 l 1,10,-1
 97 0 l 1,0,-1
EndSplineSet
Validated: 1
EndChar

StartChar: uni16AC
Encoding: 5804 5804 17
Width: 505
Flags: W
LayerCount: 2
Fore
SplineSet
209 0 m 1,0,-1
 209 277 l 1,1,-1
 40 376 l 1,2,-1
 76 439 l 1,3,-1
 209 360 l 1,4,-1
 209 438 l 1,5,-1
 40 537 l 1,6,-1
 76 600 l 1,7,-1
 209 521 l 1,8,-1
 209 714 l 1,9,-1
 297 714 l 1,10,-1
 297 469 l 1,11,-1
 464 370 l 1,12,-1
 429 310 l 1,13,-1
 297 387 l 1,14,-1
 297 308 l 1,15,-1
 464 209 l 1,16,-1
 429 149 l 1,17,-1
 297 226 l 1,18,-1
 297 0 l 1,19,-1
 209 0 l 1,0,-1
EndSplineSet
Validated: 1
EndChar

StartChar: uni16AD
Encoding: 5805 5805 18
Width: 396
Flags: W
LayerCount: 2
Fore
SplineSet
97 0 m 1,0,-1
 97 714 l 1,1,-1
 187 714 l 1,2,-1
 187 468 l 1,3,-1
 355 369 l 1,4,-1
 320 309 l 1,5,-1
 187 386 l 1,6,-1
 187 307 l 1,7,-1
 355 208 l 1,8,-1
 320 148 l 1,9,-1
 187 225 l 1,10,-1
 187 0 l 1,11,-1
 97 0 l 1,0,-1
EndSplineSet
Validated: 1
EndChar

StartChar: uni16AE
Encoding: 5806 5806 19
Width: 402
Flags: W
LayerCount: 2
Fore
SplineSet
214 0 m 1,0,-1
 214 235 l 1,1,-1
 76 161 l 1,2,-1
 40 221 l 1,3,-1
 214 314 l 1,4,-1
 214 396 l 1,5,-1
 76 322 l 1,6,-1
 40 382 l 1,7,-1
 214 475 l 1,8,-1
 214 714 l 1,9,-1
 304 714 l 1,10,-1
 304 0 l 1,11,-1
 214 0 l 1,0,-1
EndSplineSet
Validated: 1
EndChar

StartChar: uni16AF
Encoding: 5807 5807 20
Width: 517
Flags: W
LayerCount: 2
Fore
SplineSet
214 0 m 1,0,-1
 214 235 l 1,1,-1
 76 161 l 1,2,-1
 40 221 l 1,3,-1
 214 314 l 1,4,-1
 214 396 l 1,5,-1
 76 322 l 1,6,-1
 40 382 l 1,7,-1
 214 475 l 1,8,-1
 214 714 l 1,9,-1
 302 714 l 1,10,-1
 302 520 l 1,11,-1
 446 597 l 1,12,-1
 476 535 l 1,13,-1
 302 440 l 1,14,-1
 302 359 l 1,15,-1
 446 436 l 1,16,-1
 476 374 l 1,17,-1
 302 279 l 1,18,-1
 302 0 l 1,19,-1
 214 0 l 1,0,-1
EndSplineSet
Validated: 1
EndChar

StartChar: uni16B0
Encoding: 5808 5808 21
Width: 519
Flags: W
LayerCount: 2
Fore
SplineSet
214 0 m 1,0,-1
 214 235 l 1,1,-1
 76 161 l 1,2,-1
 40 221 l 1,3,-1
 214 314 l 1,4,-1
 214 396 l 1,5,-1
 76 322 l 1,6,-1
 40 382 l 1,7,-1
 214 475 l 1,8,-1
 214 714 l 1,9,-1
 302 714 l 1,10,-1
 302 520 l 1,11,-1
 448 598 l 1,12,-1
 478 536 l 1,13,-1
 302 440 l 1,14,-1
 302 0 l 1,15,-1
 214 0 l 1,0,-1
EndSplineSet
Validated: 1
EndChar

StartChar: uni16B1
Encoding: 5809 5809 22
Width: 501
Flags: W
LayerCount: 2
Fore
SplineSet
97 0 m 1,0,-1
 97 714 l 1,1,-1
 187 714 l 1,2,-1
 417 584 l 1,3,-1
 417 486 l 1,4,-1
 335 345 l 1,5,-1
 466 0 l 1,6,-1
 370 0 l 1,7,-1
 240 350 l 1,8,-1
 341 525 l 1,9,-1
 187 612 l 1,10,-1
 187 0 l 1,11,-1
 97 0 l 1,0,-1
EndSplineSet
Validated: 1
EndChar

StartChar: uni16B2
Encoding: 5810 5810 23
Width: 334
Flags: W
LayerCount: 2
Fore
SplineSet
235 186 m 1,0,-1
 97 335 l 1,1,-1
 97 427 l 1,2,-1
 236 562 l 1,3,-1
 236 452 l 1,4,-1
 163 382 l 1,5,-1
 163 376 l 1,6,-1
 235 300 l 1,7,-1
 235 186 l 1,0,-1
EndSplineSet
Validated: 1
EndChar

StartChar: uni16B3
Encoding: 5811 5811 24
Width: 445
Flags: W
LayerCount: 2
Fore
SplineSet
97 0 m 1,0,-1
 97 714 l 1,1,-1
 187 714 l 1,2,-1
 187 368 l 1,3,-1
 445 0 l 1,4,-1
 337 0 l 1,5,-1
 187 236 l 1,6,-1
 187 0 l 1,7,-1
 97 0 l 1,0,-1
EndSplineSet
Validated: 1
EndChar

StartChar: uni16B4
Encoding: 5812 5812 25
Width: 569
Flags: W
LayerCount: 2
Fore
SplineSet
97 0 m 1,0,-1
 97 714 l 1,1,-1
 187 714 l 1,2,-1
 187 355 l 1,3,4
 249 355 249 355 299.5 383 c 128,-1,5
 350 411 350 411 386 459 c 128,-1,6
 422 507 422 507 441.5 568 c 128,-1,7
 461 629 461 629 461 695 c 2,8,-1
 461 714 l 1,9,-1
 554 714 l 1,10,-1
 554 696 l 2,11,12
 554 609 554 609 524.5 533 c 128,-1,13
 495 457 495 457 444 400 c 128,-1,14
 393 343 393 343 327 310.5 c 128,-1,15
 261 278 261 278 187 278 c 1,16,-1
 187 0 l 1,17,-1
 97 0 l 1,0,-1
EndSplineSet
Validated: 1
EndChar

StartChar: uni16B5
Encoding: 5813 5813 26
Width: 569
Flags: W
LayerCount: 2
Fore
SplineSet
97 0 m 1,0,-1
 97 714 l 1,1,-1
 187 714 l 1,2,-1
 187 355 l 1,3,4
 249 355 249 355 299.5 383 c 128,-1,5
 350 411 350 411 386 459 c 128,-1,6
 422 507 422 507 441.5 568 c 128,-1,7
 461 629 461 629 461 695 c 2,8,-1
 461 714 l 1,9,-1
 554 714 l 1,10,-1
 554 696 l 2,11,12
 554 609 554 609 524.5 533 c 128,-1,13
 495 457 495 457 444 400 c 128,-1,14
 393 343 393 343 327 310.5 c 128,-1,15
 261 278 261 278 187 278 c 1,16,-1
 187 0 l 1,17,-1
 97 0 l 1,0,-1
314 540 m 0,18,19
 292 540 292 540 277 554 c 128,-1,20
 262 568 262 568 262 596 c 0,21,22
 262 625 262 625 277 638.5 c 128,-1,23
 292 652 292 652 314 652 c 0,24,25
 334 652 334 652 349.5 638.5 c 128,-1,26
 365 625 365 625 365 596 c 0,27,28
 365 568 365 568 349.5 554 c 128,-1,29
 334 540 334 540 314 540 c 0,18,19
EndSplineSet
Validated: 1
EndChar

StartChar: uni16B6
Encoding: 5814 5814 27
Width: 589
Flags: W
LayerCount: 2
Fore
SplineSet
117 0 m 1,0,-1
 117 217 l 1,1,2
 95 228 95 228 81 252 c 128,-1,3
 67 276 67 276 67 316 c 0,4,5
 67 357 67 357 81 381.5 c 128,-1,6
 95 406 95 406 117 416 c 1,7,-1
 117 714 l 1,8,-1
 207 714 l 1,9,-1
 207 416 l 1,10,11
 223 409 223 409 235.5 395 c 128,-1,12
 248 381 248 381 254 359 c 1,13,14
 324 373 324 373 374.5 422.5 c 128,-1,15
 425 472 425 472 453 543.5 c 128,-1,16
 481 615 481 615 481 695 c 2,17,-1
 481 714 l 1,18,-1
 574 714 l 1,19,-1
 574 696 l 2,20,21
 574 617 574 617 549 546.5 c 128,-1,22
 524 476 524 476 480.5 420 c 128,-1,23
 437 364 437 364 379.5 328.5 c 128,-1,24
 322 293 322 293 257 282 c 1,25,26
 245 232 245 232 207 216 c 1,27,-1
 207 0 l 1,28,-1
 117 0 l 1,0,-1
EndSplineSet
Validated: 1
EndChar

StartChar: uni16B7
Encoding: 5815 5815 28
Width: 586
Flags: W
LayerCount: 2
Fore
SplineSet
4 0 m 1,0,-1
 241 372 l 1,1,-1
 19 714 l 1,2,-1
 119 714 l 1,3,-1
 294 434 l 1,4,-1
 470 714 l 1,5,-1
 565 714 l 1,6,-1
 344 374 l 1,7,-1
 582 0 l 1,8,-1
 480 0 l 1,9,-1
 291 310 l 1,10,-1
 99 0 l 1,11,-1
 4 0 l 1,0,-1
EndSplineSet
Validated: 1
EndChar

StartChar: uni16B8
Encoding: 5816 5816 29
Width: 644
Flags: W
LayerCount: 2
Fore
SplineSet
40 0 m 1,0,-1
 143 162 l 1,1,-1
 43 349 l 1,2,-1
 43 361 l 1,3,-1
 151 566 l 1,4,-1
 55 714 l 1,5,-1
 147 714 l 1,6,-1
 322 434 l 1,7,-1
 497 714 l 1,8,-1
 589 714 l 1,9,-1
 493 566 l 1,10,-1
 601 361 l 1,11,-1
 601 349 l 1,12,-1
 501 162 l 1,13,-1
 604 0 l 1,14,-1
 516 0 l 1,15,-1
 319 310 l 1,16,-1
 127 0 l 1,17,-1
 40 0 l 1,0,-1
459 230 m 1,18,-1
 524 353 l 1,19,-1
 524 357 l 1,20,-1
 450 497 l 1,21,-1
 372 374 l 1,22,-1
 459 230 l 1,18,-1
183 236 m 1,23,-1
 269 372 l 1,24,-1
 191 494 l 1,25,-1
 120 357 l 1,26,-1
 120 353 l 1,27,-1
 183 236 l 1,23,-1
EndSplineSet
Validated: 1
EndChar

StartChar: uni16B9
Encoding: 5817 5817 30
Width: 439
Flags: W
LayerCount: 2
Fore
SplineSet
97 0 m 1,0,-1
 97 714 l 1,1,-1
 187 714 l 1,2,-1
 404 520 l 1,3,-1
 404 436 l 1,4,-1
 187 228 l 1,5,-1
 187 0 l 1,6,-1
 97 0 l 1,0,-1
187 336 m 1,7,-1
 330 479 l 1,8,-1
 187 614 l 1,9,-1
 187 336 l 1,7,-1
EndSplineSet
Validated: 1
EndChar

StartChar: uni16BA
Encoding: 5818 5818 31
Width: 731
Flags: W
LayerCount: 2
Fore
SplineSet
97 0 m 1,0,-1
 97 714 l 1,1,-1
 187 714 l 1,2,-1
 187 510 l 1,3,-1
 543 299 l 1,4,-1
 543 714 l 1,5,-1
 633 714 l 1,6,-1
 633 0 l 1,7,-1
 543 0 l 1,8,-1
 543 209 l 1,9,-1
 187 416 l 1,10,-1
 187 0 l 1,11,-1
 97 0 l 1,0,-1
EndSplineSet
Validated: 1
EndChar

StartChar: uni16BB
Encoding: 5819 5819 32
Width: 731
Flags: W
LayerCount: 2
Fore
SplineSet
97 0 m 1,0,-1
 97 714 l 1,1,-1
 187 714 l 1,2,-1
 187 604 l 1,3,-1
 543 393 l 1,4,-1
 543 714 l 1,5,-1
 633 714 l 1,6,-1
 633 0 l 1,7,-1
 543 0 l 1,8,-1
 543 117 l 1,9,-1
 187 324 l 1,10,-1
 187 0 l 1,11,-1
 97 0 l 1,0,-1
543 202 m 1,12,-1
 543 308 l 1,13,-1
 187 515 l 1,14,-1
 187 413 l 1,15,-1
 543 202 l 1,12,-1
EndSplineSet
Validated: 1
EndChar

StartChar: uni16BC
Encoding: 5820 5820 33
Width: 513
Flags: W
LayerCount: 2
Fore
SplineSet
214 0 m 1,0,-1
 214 147 l 2,1,2
 214 178 214 178 216 217 c 128,-1,3
 218 256 218 256 220 281 c 1,4,-1
 80 187 l 1,5,-1
 40 251 l 1,6,-1
 188 350 l 1,7,-1
 40 450 l 1,8,-1
 80 515 l 1,9,-1
 214 425 l 1,10,-1
 214 714 l 1,11,-1
 297 714 l 1,12,-1
 297 424 l 1,13,-1
 432 515 l 1,14,-1
 472 450 l 1,15,-1
 324 350 l 1,16,-1
 472 251 l 1,17,-1
 432 187 l 1,18,-1
 292 281 l 1,19,20
 294 256 294 256 295.5 217 c 128,-1,21
 297 178 297 178 297 147 c 2,22,-1
 297 0 l 1,23,-1
 214 0 l 1,0,-1
EndSplineSet
Validated: 1
EndChar

StartChar: uni16BD
Encoding: 5821 5821 34
Width: 327
Flags: W
LayerCount: 2
Fore
SplineSet
117 0 m 1,0,-1
 117 271 l 1,1,2
 95 282 95 282 81 306 c 128,-1,3
 67 330 67 330 67 370 c 0,4,5
 67 411 67 411 81 435.5 c 128,-1,6
 95 460 95 460 117 470 c 1,7,-1
 117 714 l 1,8,-1
 207 714 l 1,9,-1
 207 470 l 1,10,11
 230 460 230 460 245 435.5 c 128,-1,12
 260 411 260 411 260 370 c 0,13,14
 260 330 260 330 245 305.5 c 128,-1,15
 230 281 230 281 207 270 c 1,16,-1
 207 0 l 1,17,-1
 117 0 l 1,0,-1
EndSplineSet
Validated: 1
EndChar

StartChar: uni16BE
Encoding: 5822 5822 35
Width: 508
Flags: W
LayerCount: 2
Fore
SplineSet
209 0 m 1,0,-1
 209 348 l 1,1,-1
 40 447 l 1,2,-1
 76 510 l 1,3,-1
 209 431 l 1,4,-1
 209 714 l 1,5,-1
 299 714 l 1,6,-1
 299 378 l 1,7,-1
 467 279 l 1,8,-1
 432 219 l 1,9,-1
 299 296 l 1,10,-1
 299 0 l 1,11,-1
 209 0 l 1,0,-1
EndSplineSet
Validated: 1
EndChar

StartChar: uni16BF
Encoding: 5823 5823 36
Width: 396
Flags: W
LayerCount: 2
Fore
SplineSet
97 0 m 1,0,-1
 97 714 l 1,1,-1
 187 714 l 1,2,-1
 187 378 l 1,3,-1
 355 279 l 1,4,-1
 320 219 l 1,5,-1
 187 296 l 1,6,-1
 187 0 l 1,7,-1
 97 0 l 1,0,-1
EndSplineSet
Validated: 1
EndChar

StartChar: uni16C0
Encoding: 5824 5824 37
Width: 508
Flags: W
LayerCount: 2
Fore
SplineSet
209 0 m 1,0,-1
 209 271 l 1,1,2
 187 282 187 282 173 306 c 128,-1,3
 159 330 159 330 159 370 c 2,4,-1
 159 378 l 1,5,-1
 40 447 l 1,6,-1
 76 510 l 1,7,-1
 181 448 l 1,8,9
 193 463 193 463 209 470 c 1,10,-1
 209 714 l 1,11,-1
 299 714 l 1,12,-1
 299 470 l 1,13,14
 322 460 322 460 337 435.5 c 128,-1,15
 352 411 352 411 352 370 c 0,16,17
 352 364 352 364 351.5 358.5 c 128,-1,18
 351 353 351 353 350 348 c 1,19,-1
 467 279 l 1,20,-1
 432 219 l 1,21,-1
 320 284 l 1,22,23
 310 274 310 274 299 270 c 1,24,-1
 299 0 l 1,25,-1
 209 0 l 1,0,-1
EndSplineSet
Validated: 1
EndChar

StartChar: uni16C1
Encoding: 5825 5825 38
Width: 285
Flags: W
LayerCount: 2
Fore
SplineSet
96 0 m 1,0,-1
 96 714 l 1,1,-1
 188 714 l 1,2,-1
 188 0 l 1,3,-1
 96 0 l 1,0,-1
EndSplineSet
Validated: 1
EndChar

StartChar: uni16C2
Encoding: 5826 5826 39
Width: 327
Flags: W
LayerCount: 2
Fore
SplineSet
117 0 m 1,0,-1
 117 271 l 1,1,2
 95 282 95 282 81 306 c 128,-1,3
 67 330 67 330 67 370 c 0,4,5
 67 411 67 411 81 435.5 c 128,-1,6
 95 460 95 460 117 470 c 1,7,-1
 117 714 l 1,8,-1
 207 714 l 1,9,-1
 207 470 l 1,10,11
 230 460 230 460 245 435.5 c 128,-1,12
 260 411 260 411 260 370 c 0,13,14
 260 330 260 330 245 305.5 c 128,-1,15
 230 281 230 281 207 270 c 1,16,-1
 207 0 l 1,17,-1
 117 0 l 1,0,-1
EndSplineSet
Validated: 1
EndChar

StartChar: uni16C3
Encoding: 5827 5827 40
Width: 512
Flags: W
LayerCount: 2
Fore
SplineSet
172 393 m 1,0,-1
 97 498 l 1,1,-1
 97 590 l 1,2,-1
 236 725 l 1,3,-1
 236 625 l 1,4,-1
 166 555 l 1,5,-1
 166 549 l 1,6,-1
 241 445 l 1,7,-1
 172 393 l 1,0,-1
272 243 m 1,8,-1
 272 343 l 1,9,-1
 342 413 l 1,10,-1
 342 419 l 1,11,-1
 267 523 l 1,12,-1
 336 575 l 1,13,-1
 411 470 l 1,14,-1
 411 378 l 1,15,-1
 272 243 l 1,8,-1
EndSplineSet
Validated: 1
EndChar

StartChar: uni16C4
Encoding: 5828 5828 41
Width: 487
Flags: W
LayerCount: 2
Fore
SplineSet
197 0 m 1,0,-1
 197 189 l 1,1,-1
 50 323 l 1,2,-1
 50 404 l 1,3,-1
 199 524 l 1,4,-1
 199 714 l 1,5,-1
 289 714 l 1,6,-1
 289 524 l 1,7,-1
 437 404 l 1,8,-1
 437 320 l 1,9,-1
 289 187 l 1,10,-1
 289 0 l 1,11,-1
 197 0 l 1,0,-1
199 288 m 1,12,-1
 199 431 l 1,13,-1
 115 364 l 1,14,-1
 199 288 l 1,12,-1
289 288 m 1,15,-1
 372 364 l 1,16,-1
 289 431 l 1,17,-1
 289 288 l 1,15,-1
EndSplineSet
Validated: 1
EndChar

StartChar: uni16C5
Encoding: 5829 5829 42
Width: 519
Flags: W
LayerCount: 2
Fore
SplineSet
214 0 m 1,0,-1
 214 307 l 1,1,-1
 76 233 l 1,2,-1
 40 293 l 1,3,-1
 214 386 l 1,4,-1
 214 714 l 1,5,-1
 304 714 l 1,6,-1
 304 432 l 1,7,-1
 448 509 l 1,8,-1
 478 447 l 1,9,-1
 304 352 l 1,10,-1
 304 0 l 1,11,-1
 214 0 l 1,0,-1
EndSplineSet
Validated: 1
EndChar

StartChar: uni16C6
Encoding: 5830 5830 43
Width: 402
Flags: W
LayerCount: 2
Fore
SplineSet
214 0 m 1,0,-1
 214 307 l 1,1,-1
 76 233 l 1,2,-1
 40 293 l 1,3,-1
 214 386 l 1,4,-1
 214 714 l 1,5,-1
 304 714 l 1,6,-1
 304 0 l 1,7,-1
 214 0 l 1,0,-1
EndSplineSet
Validated: 1
EndChar

StartChar: uni16C7
Encoding: 5831 5831 44
Width: 508
Flags: W
LayerCount: 2
Fore
SplineSet
209 0 m 1,0,-1
 40 99 l 1,1,-1
 76 162 l 1,2,-1
 209 83 l 1,3,-1
 209 714 l 1,4,-1
 299 714 l 1,5,-1
 467 615 l 1,6,-1
 432 555 l 1,7,-1
 299 632 l 1,8,-1
 299 0 l 1,9,-1
 209 0 l 1,0,-1
EndSplineSet
Validated: 1
EndChar

StartChar: uni16C8
Encoding: 5832 5832 45
Width: 459
Flags: W
LayerCount: 2
Fore
SplineSet
97 0 m 1,0,-1
 97 714 l 1,1,-1
 187 714 l 1,2,-1
 312 598 l 1,3,-1
 448 714 l 1,4,-1
 448 619 l 1,5,-1
 313 503 l 1,6,-1
 187 614 l 1,7,-1
 187 97 l 1,8,-1
 313 211 l 1,9,-1
 448 95 l 1,10,-1
 448 0 l 1,11,-1
 312 116 l 1,12,-1
 187 0 l 1,13,-1
 97 0 l 1,0,-1
EndSplineSet
Validated: 1
EndChar

StartChar: uni16C9
Encoding: 5833 5833 46
Width: 607
Flags: W
LayerCount: 2
Fore
SplineSet
258 0 m 1,0,-1
 258 346 l 1,1,-1
 0 714 l 1,2,-1
 108 714 l 1,3,-1
 258 478 l 1,4,-1
 258 714 l 1,5,-1
 348 714 l 1,6,-1
 348 478 l 1,7,-1
 498 714 l 1,8,-1
 606 714 l 1,9,-1
 348 346 l 1,10,-1
 348 0 l 1,11,-1
 258 0 l 1,0,-1
EndSplineSet
Validated: 1
EndChar

StartChar: uni16CA
Encoding: 5834 5834 47
Width: 381
Flags: W
LayerCount: 2
Fore
SplineSet
203 0 m 1,0,-1
 38 180 l 1,1,-1
 38 184 l 1,2,-1
 213 364 l 1,3,-1
 213 368 l 1,4,-1
 38 530 l 1,5,-1
 38 534 l 1,6,-1
 223 714 l 1,7,-1
 345 714 l 1,8,-1
 158 534 l 1,9,-1
 158 530 l 1,10,-1
 335 369 l 1,11,-1
 335 364 l 1,12,-1
 158 184 l 1,13,-1
 158 180 l 1,14,-1
 325 0 l 1,15,-1
 203 0 l 1,0,-1
EndSplineSet
Validated: 1
EndChar

StartChar: uni16CB
Encoding: 5835 5835 48
Width: 653
Flags: W
LayerCount: 2
Fore
SplineSet
465 0 m 1,0,-1
 465 424 l 1,1,-1
 187 217 l 1,2,-1
 97 217 l 1,3,-1
 97 714 l 1,4,-1
 187 714 l 1,5,-1
 187 319 l 1,6,-1
 465 530 l 1,7,-1
 555 530 l 1,8,-1
 555 0 l 1,9,-1
 465 0 l 1,0,-1
EndSplineSet
Validated: 1
EndChar

StartChar: uni16CC
Encoding: 5836 5836 49
Width: 285
Flags: W
LayerCount: 2
Fore
SplineSet
97 460 m 1,0,-1
 97 714 l 1,1,-1
 187 714 l 1,2,-1
 187 460 l 1,3,-1
 97 460 l 1,0,-1
EndSplineSet
Validated: 1
EndChar

StartChar: uni16CD
Encoding: 5837 5837 50
Width: 327
Flags: W
LayerCount: 2
Fore
SplineSet
163 262 m 0,0,1
 123 262 123 262 95 287.5 c 128,-1,2
 67 313 67 313 67 370 c 0,3,4
 67 411 67 411 81 435.5 c 128,-1,5
 95 460 95 460 117 470 c 1,6,-1
 117 714 l 1,7,-1
 207 714 l 1,8,-1
 207 470 l 1,9,10
 230 460 230 460 245 435.5 c 128,-1,11
 260 411 260 411 260 370 c 0,12,13
 260 313 260 313 232 287.5 c 128,-1,14
 204 262 204 262 163 262 c 0,0,1
EndSplineSet
Validated: 1
EndChar

StartChar: uni16CE
Encoding: 5838 5838 51
Width: 519
Flags: W
LayerCount: 2
Fore
SplineSet
214 271 m 1,0,-1
 45 370 l 1,1,-1
 81 433 l 1,2,-1
 214 354 l 1,3,-1
 214 714 l 1,4,-1
 304 714 l 1,5,-1
 304 351 l 1,6,-1
 448 428 l 1,7,-1
 478 366 l 1,8,-1
 304 271 l 1,9,-1
 214 271 l 1,0,-1
EndSplineSet
Validated: 1
EndChar

StartChar: uni16CF
Encoding: 5839 5839 52
Width: 513
Flags: W
LayerCount: 2
Fore
SplineSet
214 0 m 1,0,-1
 214 635 l 1,1,-1
 76 561 l 1,2,-1
 40 621 l 1,3,-1
 214 714 l 1,4,-1
 304 714 l 1,5,-1
 472 615 l 1,6,-1
 437 555 l 1,7,-1
 304 632 l 1,8,-1
 304 0 l 1,9,-1
 214 0 l 1,0,-1
EndSplineSet
Validated: 1
EndChar

StartChar: uni16D0
Encoding: 5840 5840 53
Width: 403
Flags: W
LayerCount: 2
Fore
SplineSet
212 0 m 1,0,-1
 212 633 l 1,1,-1
 76 559 l 1,2,-1
 40 621 l 1,3,-1
 214 714 l 1,4,-1
 305 714 l 1,5,-1
 305 0 l 1,6,-1
 212 0 l 1,0,-1
EndSplineSet
Validated: 1
EndChar

StartChar: uni16D1
Encoding: 5841 5841 54
Width: 424
Flags: W
LayerCount: 2
Fore
SplineSet
214 0 m 1,0,-1
 214 271 l 1,1,2
 192 282 192 282 178 306 c 128,-1,3
 164 330 164 330 164 370 c 0,4,5
 164 411 164 411 178 435.5 c 128,-1,6
 192 460 192 460 214 470 c 1,7,-1
 214 635 l 1,8,-1
 76 561 l 1,9,-1
 40 621 l 1,10,-1
 214 714 l 1,11,-1
 304 714 l 1,12,-1
 304 470 l 1,13,14
 327 460 327 460 342 435.5 c 128,-1,15
 357 411 357 411 357 370 c 0,16,17
 357 330 357 330 342 305.5 c 128,-1,18
 327 281 327 281 304 270 c 1,19,-1
 304 0 l 1,20,-1
 214 0 l 1,0,-1
EndSplineSet
Validated: 1
EndChar

StartChar: uni16D2
Encoding: 5842 5842 55
Width: 509
Flags: W
LayerCount: 2
Fore
SplineSet
97 0 m 1,0,-1
 97 714 l 1,1,-1
 187 714 l 1,2,-1
 464 550 l 1,3,-1
 464 466 l 1,4,-1
 295 361 l 1,5,-1
 464 260 l 1,6,-1
 464 176 l 1,7,-1
 187 0 l 1,8,-1
 97 0 l 1,0,-1
187 386 m 1,9,-1
 380 509 l 1,10,-1
 187 624 l 1,11,-1
 187 386 l 1,9,-1
187 96 m 1,12,-1
 380 219 l 1,13,-1
 187 334 l 1,14,-1
 187 96 l 1,12,-1
EndSplineSet
Validated: 1
EndChar

StartChar: uni16D3
Encoding: 5843 5843 56
Width: 402
Flags: W
LayerCount: 2
Fore
SplineSet
97 0 m 1,0,-1
 97 714 l 1,1,-1
 187 714 l 1,2,-1
 187 521 l 1,3,-1
 331 598 l 1,4,-1
 361 536 l 1,5,-1
 187 441 l 1,6,-1
 187 360 l 1,7,-1
 331 437 l 1,8,-1
 361 375 l 1,9,-1
 187 280 l 1,10,-1
 187 0 l 1,11,-1
 97 0 l 1,0,-1
EndSplineSet
Validated: 1
EndChar

StartChar: uni16D4
Encoding: 5844 5844 57
Width: 550
Flags: W
LayerCount: 2
Fore
SplineSet
97 0 m 1,0,-1
 97 714 l 1,1,-1
 250 714 l 2,2,3
 358 714 358 714 424 670.5 c 128,-1,4
 490 627 490 627 490 538 c 0,5,6
 490 485 490 485 470 452.5 c 128,-1,7
 450 420 450 420 415 402 c 128,-1,8
 380 384 380 384 336 376 c 1,9,-1
 336 371 l 1,10,11
 381 364 381 364 417.5 344 c 128,-1,12
 454 324 454 324 475 289.5 c 128,-1,13
 496 255 496 255 496 203 c 0,14,15
 496 106 496 106 429.5 53 c 128,-1,16
 363 0 363 0 248 0 c 2,17,-1
 97 0 l 1,0,-1
187 410 m 1,18,-1
 230 410 l 2,19,20
 294 410 294 410 330 425.5 c 128,-1,21
 366 441 366 441 381.5 468 c 128,-1,22
 397 495 397 495 397 529 c 0,23,24
 397 579 397 579 360.5 608 c 128,-1,25
 324 637 324 637 228 637 c 2,26,-1
 187 637 l 1,27,-1
 187 410 l 1,18,-1
285 486 m 256,28,29
 269 486 269 486 258 496 c 128,-1,30
 247 506 247 506 247 527 c 0,31,32
 247 549 247 549 258 558.5 c 128,-1,33
 269 568 269 568 285 568 c 256,34,35
 301 568 301 568 311.5 558.5 c 128,-1,36
 322 549 322 549 322 527 c 0,37,38
 322 506 322 506 311.5 496 c 128,-1,39
 301 486 301 486 285 486 c 256,28,29
187 76 m 1,40,-1
 231 76 l 2,41,42
 294 76 294 76 331 93.5 c 128,-1,43
 368 111 368 111 384 140.5 c 128,-1,44
 400 170 400 170 400 207 c 0,45,46
 400 243 400 243 383.5 272.5 c 128,-1,47
 367 302 367 302 330 319.5 c 128,-1,48
 293 337 293 337 229 337 c 2,49,-1
 187 337 l 1,50,-1
 187 76 l 1,40,-1
285 166 m 256,51,52
 269 166 269 166 258 176 c 128,-1,53
 247 186 247 186 247 207 c 0,54,55
 247 229 247 229 258 238.5 c 128,-1,56
 269 248 269 248 285 248 c 256,57,58
 301 248 301 248 311.5 238.5 c 128,-1,59
 322 229 322 229 322 207 c 0,60,61
 322 186 322 186 311.5 176 c 128,-1,62
 301 166 301 166 285 166 c 256,51,52
EndSplineSet
Validated: 1
EndChar

StartChar: uni16D5
Encoding: 5845 5845 58
Width: 517
Flags: W
LayerCount: 2
Fore
SplineSet
97 0 m 1,0,-1
 97 714 l 1,1,-1
 187 714 l 1,2,-1
 187 368 l 1,3,-1
 402 714 l 1,4,-1
 504 714 l 1,5,-1
 275 367 l 1,6,-1
 512 0 l 1,7,-1
 405 0 l 1,8,-1
 187 362 l 1,9,-1
 187 0 l 1,10,-1
 97 0 l 1,0,-1
EndSplineSet
Validated: 1
EndChar

StartChar: uni16D6
Encoding: 5846 5846 59
Width: 736
Flags: W
LayerCount: 2
Fore
SplineSet
97 0 m 1,0,-1
 97 714 l 1,1,-1
 187 714 l 1,2,-1
 363 588 l 1,3,-1
 548 714 l 1,4,-1
 638 714 l 1,5,-1
 638 0 l 1,6,-1
 548 0 l 1,7,-1
 548 615 l 1,8,-1
 363 491 l 1,9,-1
 187 614 l 1,10,-1
 187 0 l 1,11,-1
 97 0 l 1,0,-1
EndSplineSet
Validated: 1
EndChar

StartChar: uni16D7
Encoding: 5847 5847 60
Width: 754
Flags: W
LayerCount: 2
Fore
SplineSet
97 0 m 1,0,-1
 97 714 l 1,1,-1
 184 714 l 1,2,-1
 381 530 l 1,3,-1
 579 714 l 1,4,-1
 666 714 l 1,5,-1
 666 0 l 1,6,-1
 579 0 l 1,7,-1
 579 245 l 1,8,-1
 382 428 l 1,9,-1
 184 244 l 1,10,-1
 184 0 l 1,11,-1
 97 0 l 1,0,-1
579 347 m 1,12,-1
 579 611 l 1,13,-1
 437 479 l 1,14,-1
 579 347 l 1,12,-1
184 347 m 1,15,-1
 326 480 l 1,16,-1
 184 610 l 1,17,-1
 184 347 l 1,15,-1
EndSplineSet
Validated: 1
EndChar

StartChar: uni16D8
Encoding: 5848 5848 61
Width: 662
Flags: W
LayerCount: 2
Fore
SplineSet
283 0 m 1,0,-1
 283 440 l 1,1,2
 225 446 225 446 169.5 472.5 c 128,-1,3
 114 499 114 499 72.5 557 c 128,-1,4
 31 615 31 615 15 714 c 1,5,-1
 110 714 l 1,6,7
 126 635 126 635 164 582.5 c 128,-1,8
 202 530 202 530 283 519 c 1,9,-1
 283 714 l 1,10,-1
 379 714 l 1,11,-1
 379 519 l 1,12,13
 460 530 460 530 498 582.5 c 128,-1,14
 536 635 536 635 552 714 c 1,15,-1
 647 714 l 1,16,17
 631 615 631 615 589.5 557 c 128,-1,18
 548 499 548 499 493 472.5 c 128,-1,19
 438 446 438 446 379 440 c 1,20,-1
 379 0 l 1,21,-1
 283 0 l 1,0,-1
EndSplineSet
Validated: 1
EndChar

StartChar: uni16D9
Encoding: 5849 5849 62
Width: 352
Flags: W
LayerCount: 2
Fore
SplineSet
129 0 m 1,0,-1
 129 519 l 1,1,2
 106 530 106 530 92.5 554 c 128,-1,3
 79 578 79 578 79 618 c 0,4,5
 79 676 79 676 107 700.5 c 128,-1,6
 135 725 135 725 175 725 c 0,7,8
 216 725 216 725 244 700.5 c 128,-1,9
 272 676 272 676 272 618 c 0,10,11
 272 578 272 578 257 554 c 128,-1,12
 242 530 242 530 219 519 c 1,13,-1
 219 0 l 1,14,-1
 129 0 l 1,0,-1
EndSplineSet
Validated: 1
EndChar

StartChar: uni16DA
Encoding: 5850 5850 63
Width: 397
Flags: W
LayerCount: 2
Fore
SplineSet
97 0 m 1,0,-1
 97 714 l 1,1,-1
 188 714 l 1,2,-1
 356 615 l 1,3,-1
 321 553 l 1,4,-1
 190 630 l 1,5,-1
 190 0 l 1,6,-1
 97 0 l 1,0,-1
EndSplineSet
Validated: 1
EndChar

StartChar: uni16DB
Encoding: 5851 5851 64
Width: 429
Flags: W
LayerCount: 2
Fore
SplineSet
130 0 m 1,0,-1
 130 271 l 1,1,2
 108 282 108 282 94 306 c 128,-1,3
 80 330 80 330 80 370 c 0,4,5
 80 411 80 411 94 435.5 c 128,-1,6
 108 460 108 460 130 470 c 1,7,-1
 130 714 l 1,8,-1
 220 714 l 1,9,-1
 388 615 l 1,10,-1
 353 555 l 1,11,-1
 220 632 l 1,12,-1
 220 470 l 1,13,14
 243 460 243 460 258 435.5 c 128,-1,15
 273 411 273 411 273 370 c 0,16,17
 273 330 273 330 258 305.5 c 128,-1,18
 243 281 243 281 220 270 c 1,19,-1
 220 0 l 1,20,-1
 130 0 l 1,0,-1
EndSplineSet
Validated: 1
EndChar

StartChar: uni16DC
Encoding: 5852 5852 65
Width: 531
Flags: W
LayerCount: 2
Fore
SplineSet
215 209 m 1,0,-1
 97 335 l 1,1,-1
 97 427 l 1,2,-1
 215 542 l 1,3,-1
 315 542 l 1,4,-1
 433 427 l 1,5,-1
 433 335 l 1,6,-1
 315 209 l 1,7,-1
 215 209 l 1,0,-1
250 284 m 1,8,-1
 280 284 l 1,9,-1
 367 376 l 1,10,-1
 367 382 l 1,11,-1
 280 467 l 1,12,-1
 250 467 l 1,13,-1
 163 382 l 1,14,-1
 163 376 l 1,15,-1
 250 284 l 1,8,-1
EndSplineSet
Validated: 1
EndChar

StartChar: uni16DD
Encoding: 5853 5853 66
Width: 588
Flags: W
LayerCount: 2
Fore
SplineSet
44 0 m 1,0,-1
 236 182 l 1,1,-1
 35 370 l 1,2,-1
 236 544 l 1,3,-1
 43 714 l 1,4,-1
 155 714 l 1,5,-1
 293 594 l 1,6,-1
 432 714 l 1,7,-1
 544 714 l 1,8,-1
 351 544 l 1,9,-1
 552 370 l 1,10,-1
 351 182 l 1,11,-1
 543 0 l 1,12,-1
 431 0 l 1,13,-1
 293 128 l 1,14,-1
 156 0 l 1,15,-1
 44 0 l 1,0,-1
293 237 m 1,16,-1
 433 370 l 1,17,-1
 293 493 l 1,18,-1
 154 370 l 1,19,-1
 293 237 l 1,16,-1
EndSplineSet
Validated: 1
EndChar

StartChar: uni16DE
Encoding: 5854 5854 67
Width: 731
Flags: W
LayerCount: 2
Fore
SplineSet
97 0 m 1,0,-1
 97 714 l 1,1,-1
 180 714 l 1,2,-1
 366 423 l 1,3,-1
 555 714 l 1,4,-1
 633 714 l 1,5,-1
 633 0 l 1,6,-1
 555 0 l 1,7,-1
 366 290 l 1,8,-1
 180 0 l 1,9,-1
 97 0 l 1,0,-1
551 129 m 1,10,-1
 555 129 l 1,11,-1
 555 584 l 1,12,-1
 551 584 l 1,13,-1
 409 357 l 1,14,-1
 551 129 l 1,10,-1
180 135 m 1,15,-1
 184 135 l 1,16,-1
 323 357 l 1,17,-1
 184 578 l 1,18,-1
 180 578 l 1,19,-1
 180 135 l 1,15,-1
EndSplineSet
Validated: 1
EndChar

StartChar: uni16DF
Encoding: 5855 5855 68
Width: 582
Flags: W
LayerCount: 2
Fore
SplineSet
38 0 m 1,0,-1
 233 230 l 1,1,-1
 38 461 l 1,2,-1
 242 714 l 1,3,-1
 336 714 l 1,4,-1
 544 461 l 1,5,-1
 349 230 l 1,6,-1
 544 0 l 1,7,-1
 435 0 l 1,8,-1
 291 175 l 1,9,-1
 147 0 l 1,10,-1
 38 0 l 1,0,-1
291 286 m 1,11,-1
 441 463 l 1,12,-1
 289 648 l 1,13,-1
 141 463 l 1,14,-1
 291 286 l 1,11,-1
EndSplineSet
Validated: 1
EndChar

StartChar: uni16E0
Encoding: 5856 5856 69
Width: 633
Flags: W
LayerCount: 2
Fore
SplineSet
271 0 m 1,0,-1
 271 624 l 1,1,-1
 145 508 l 1,2,-1
 10 624 l 1,3,-1
 10 714 l 1,4,-1
 146 598 l 1,5,-1
 271 714 l 1,6,-1
 361 714 l 1,7,-1
 486 598 l 1,8,-1
 622 714 l 1,9,-1
 622 619 l 1,10,-1
 487 503 l 1,11,-1
 361 614 l 1,12,-1
 361 0 l 1,13,-1
 271 0 l 1,0,-1
EndSplineSet
Validated: 1
EndChar

StartChar: uni16E1
Encoding: 5857 5857 70
Width: 513
Flags: W
LayerCount: 2
Fore
SplineSet
214 0 m 1,0,-1
 214 147 l 2,1,2
 214 178 214 178 216 217 c 128,-1,3
 218 256 218 256 220 281 c 1,4,-1
 80 187 l 1,5,-1
 40 251 l 1,6,-1
 188 350 l 1,7,-1
 40 450 l 1,8,-1
 80 515 l 1,9,-1
 214 425 l 1,10,-1
 214 714 l 1,11,-1
 297 714 l 1,12,-1
 297 424 l 1,13,-1
 432 515 l 1,14,-1
 472 450 l 1,15,-1
 324 350 l 1,16,-1
 472 251 l 1,17,-1
 432 187 l 1,18,-1
 292 281 l 1,19,20
 294 256 294 256 295.5 217 c 128,-1,21
 297 178 297 178 297 147 c 2,22,-1
 297 0 l 1,23,-1
 214 0 l 1,0,-1
EndSplineSet
Validated: 1
EndChar

StartChar: uni16E2
Encoding: 5858 5858 71
Width: 633
Flags: W
LayerCount: 2
Fore
SplineSet
10 0 m 1,0,-1
 10 95 l 1,1,-1
 145 211 l 1,2,-1
 271 97 l 1,3,-1
 271 714 l 1,4,-1
 361 714 l 1,5,-1
 486 598 l 1,6,-1
 622 714 l 1,7,-1
 622 619 l 1,8,-1
 487 503 l 1,9,-1
 361 614 l 1,10,-1
 361 0 l 1,11,-1
 271 0 l 1,12,-1
 146 116 l 1,13,-1
 10 0 l 1,0,-1
EndSplineSet
Validated: 1
EndChar

StartChar: uni16E3
Encoding: 5859 5859 72
Width: 607
Flags: W
LayerCount: 2
Fore
SplineSet
0 0 m 1,0,-1
 258 368 l 1,1,-1
 258 714 l 1,2,-1
 348 714 l 1,3,-1
 348 368 l 1,4,-1
 606 0 l 1,5,-1
 498 0 l 1,6,-1
 348 236 l 1,7,-1
 348 0 l 1,8,-1
 258 0 l 1,9,-1
 258 236 l 1,10,-1
 108 0 l 1,11,-1
 0 0 l 1,0,-1
EndSplineSet
Validated: 1
EndChar

StartChar: uni16E4
Encoding: 5860 5860 73
Width: 686
Flags: W
LayerCount: 2
Fore
SplineSet
40 0 m 1,0,-1
 145 160 l 1,1,-1
 43 349 l 1,2,-1
 43 361 l 1,3,-1
 154 571 l 1,4,-1
 55 714 l 1,5,-1
 152 714 l 1,6,-1
 304 482 l 1,7,-1
 304 714 l 1,8,-1
 379 714 l 1,9,-1
 379 480 l 1,10,-1
 532 714 l 1,11,-1
 629 714 l 1,12,-1
 529 571 l 1,13,-1
 640 361 l 1,14,-1
 640 349 l 1,15,-1
 538 160 l 1,16,-1
 646 0 l 1,17,-1
 551 0 l 1,18,-1
 379 266 l 1,19,-1
 379 0 l 1,20,-1
 304 0 l 1,21,-1
 304 272 l 1,22,-1
 132 0 l 1,23,-1
 40 0 l 1,0,-1
495 225 m 1,24,-1
 563 353 l 1,25,-1
 563 357 l 1,26,-1
 484 508 l 1,27,-1
 392 374 l 1,28,-1
 495 225 l 1,24,-1
188 225 m 1,29,-1
 289 372 l 1,30,-1
 196 506 l 1,31,-1
 120 357 l 1,32,-1
 120 353 l 1,33,-1
 188 225 l 1,29,-1
EndSplineSet
Validated: 1
EndChar

StartChar: uni16E5
Encoding: 5861 5861 74
Width: 731
Flags: W
LayerCount: 2
Fore
SplineSet
97 0 m 1,0,-1
 97 714 l 1,1,-1
 180 714 l 1,2,-1
 366 584 l 1,3,-1
 555 714 l 1,4,-1
 633 714 l 1,5,-1
 633 0 l 1,6,-1
 555 0 l 1,7,-1
 366 129 l 1,8,-1
 180 0 l 1,9,-1
 97 0 l 1,0,-1
555 453 m 1,10,-1
 555 635 l 1,11,-1
 424 544 l 1,12,-1
 555 453 l 1,10,-1
180 456 m 1,13,-1
 308 544 l 1,14,-1
 180 632 l 1,15,-1
 180 456 l 1,13,-1
366 210 m 1,16,-1
 555 340 l 1,17,-1
 555 374 l 1,18,-1
 366 503 l 1,19,-1
 180 374 l 1,20,-1
 180 340 l 1,21,-1
 366 210 l 1,16,-1
555 79 m 1,22,-1
 555 261 l 1,23,-1
 424 170 l 1,24,-1
 555 79 l 1,22,-1
180 82 m 1,25,-1
 308 170 l 1,26,-1
 180 258 l 1,27,-1
 180 82 l 1,25,-1
EndSplineSet
Validated: 1
EndChar

StartChar: uni16E6
Encoding: 5862 5862 75
Width: 662
Flags: W
LayerCount: 2
Fore
SplineSet
15 0 m 1,0,1
 31 99 31 99 72.5 157 c 128,-1,2
 114 215 114 215 169.5 242 c 128,-1,3
 225 269 225 269 283 274 c 1,4,-1
 283 714 l 1,5,-1
 379 714 l 1,6,-1
 379 274 l 1,7,8
 438 269 438 269 493 242 c 128,-1,9
 548 215 548 215 589.5 157 c 128,-1,10
 631 99 631 99 647 0 c 1,11,-1
 552 0 l 1,12,13
 536 79 536 79 498 131.5 c 128,-1,14
 460 184 460 184 379 195 c 1,15,-1
 379 0 l 1,16,-1
 283 0 l 1,17,-1
 283 195 l 1,18,19
 202 184 202 184 164 131.5 c 128,-1,20
 126 79 126 79 110 0 c 1,21,-1
 15 0 l 1,0,1
EndSplineSet
Validated: 1
EndChar

StartChar: uni16E7
Encoding: 5863 5863 76
Width: 285
Flags: W
LayerCount: 2
Fore
SplineSet
97 0 m 1,0,-1
 97 271 l 1,1,-1
 187 271 l 1,2,-1
 187 0 l 1,3,-1
 97 0 l 1,0,-1
EndSplineSet
Validated: 1
EndChar

StartChar: uni16E8
Encoding: 5864 5864 77
Width: 519
Flags: W
LayerCount: 2
Fore
SplineSet
214 0 m 1,0,-1
 45 99 l 1,1,-1
 81 162 l 1,2,-1
 214 83 l 1,3,-1
 214 635 l 1,4,-1
 76 561 l 1,5,-1
 40 621 l 1,6,-1
 214 714 l 1,7,-1
 304 714 l 1,8,-1
 477 621 l 1,9,-1
 442 560 l 1,10,-1
 304 630 l 1,11,-1
 304 80 l 1,12,-1
 448 157 l 1,13,-1
 478 95 l 1,14,-1
 304 0 l 1,15,-1
 214 0 l 1,0,-1
EndSplineSet
Validated: 1
EndChar

StartChar: uni16E9
Encoding: 5865 5865 78
Width: 439
Flags: W
LayerCount: 2
Fore
SplineSet
252 0 m 1,0,-1
 252 228 l 1,1,-1
 35 436 l 1,2,-1
 35 520 l 1,3,-1
 252 714 l 1,4,-1
 342 714 l 1,5,-1
 342 0 l 1,6,-1
 252 0 l 1,0,-1
252 336 m 1,7,-1
 252 614 l 1,8,-1
 109 479 l 1,9,-1
 252 336 l 1,7,-1
EndSplineSet
Validated: 1
EndChar

StartChar: uni16EA
Encoding: 5866 5866 79
Width: 765
Flags: W
LayerCount: 2
Fore
SplineSet
521 0 m 1,0,-1
 521 80 l 1,1,-1
 380 80 l 1,2,-1
 380 159 l 1,3,-1
 521 159 l 1,4,-1
 521 426 l 1,5,-1
 243 219 l 1,6,-1
 153 219 l 1,7,-1
 153 560 l 1,8,-1
 10 560 l 1,9,-1
 10 639 l 1,10,-1
 153 639 l 1,11,-1
 153 714 l 1,12,-1
 243 714 l 1,13,-1
 243 639 l 1,14,-1
 384 639 l 1,15,-1
 384 560 l 1,16,-1
 243 560 l 1,17,-1
 243 319 l 1,18,-1
 521 530 l 1,19,-1
 611 530 l 1,20,-1
 611 159 l 1,21,-1
 754 159 l 1,22,-1
 754 80 l 1,23,-1
 611 80 l 1,24,-1
 611 0 l 1,25,-1
 521 0 l 1,0,-1
EndSplineSet
Validated: 1
EndChar

StartChar: uni16EB
Encoding: 5867 5867 80
Width: 366
Flags: W
LayerCount: 2
Fore
SplineSet
183 266 m 0,0,1
 146 266 146 266 120 289.5 c 128,-1,2
 94 313 94 313 94 365 c 0,3,4
 94 419 94 419 120 441.5 c 128,-1,5
 146 464 146 464 183 464 c 0,6,7
 221 464 221 464 246.5 441.5 c 128,-1,8
 272 419 272 419 272 365 c 0,9,10
 272 313 272 313 246.5 289.5 c 128,-1,11
 221 266 221 266 183 266 c 0,0,1
EndSplineSet
Validated: 1
EndChar

StartChar: uni16EC
Encoding: 5868 5868 81
Width: 277
Flags: W
LayerCount: 2
Fore
SplineSet
136 422 m 0,0,1
 111 422 111 422 93 438 c 128,-1,2
 75 454 75 454 75 490 c 0,3,4
 75 528 75 528 93 543 c 128,-1,5
 111 558 111 558 136 558 c 0,6,7
 162 558 162 558 180.5 543 c 128,-1,8
 199 528 199 528 199 490 c 0,9,10
 199 454 199 454 180.5 438 c 128,-1,11
 162 422 162 422 136 422 c 0,0,1
136 174 m 0,12,13
 111 174 111 174 93 190 c 128,-1,14
 75 206 75 206 75 242 c 0,15,16
 75 279 75 279 93 294 c 128,-1,17
 111 309 111 309 136 309 c 0,18,19
 162 309 162 309 180.5 294 c 128,-1,20
 199 279 199 279 199 242 c 0,21,22
 199 206 199 206 180.5 190 c 128,-1,23
 162 174 162 174 136 174 c 0,12,13
EndSplineSet
Validated: 1
EndChar

StartChar: uni16ED
Encoding: 5869 5869 82
Width: 463
Flags: W
LayerCount: 2
Fore
SplineSet
165 200 m 1,0,-1
 207 345 l 1,1,-1
 58 309 l 1,2,-1
 58 436 l 1,3,-1
 207 397 l 1,4,-1
 165 551 l 1,5,-1
 308 551 l 1,6,-1
 261 397 l 1,7,-1
 413 436 l 1,8,-1
 413 309 l 1,9,-1
 261 345 l 1,10,-1
 308 200 l 1,11,-1
 165 200 l 1,0,-1
EndSplineSet
Validated: 1
EndChar

StartChar: uni16EE
Encoding: 5870 5870 83
Width: 513
Flags: W
LayerCount: 2
Fore
SplineSet
214 0 m 1,0,-1
 214 307 l 1,1,-1
 76 233 l 1,2,-1
 40 293 l 1,3,-1
 214 386 l 1,4,-1
 214 714 l 1,5,-1
 304 714 l 1,6,-1
 472 615 l 1,7,-1
 437 555 l 1,8,-1
 304 632 l 1,9,-1
 304 0 l 1,10,-1
 214 0 l 1,0,-1
EndSplineSet
Validated: 1
EndChar

StartChar: uni16EF
Encoding: 5871 5871 84
Width: 662
Flags: W
LayerCount: 2
Fore
SplineSet
15 0 m 1,0,1
 31 99 31 99 72.5 157 c 128,-1,2
 114 215 114 215 169.5 242 c 128,-1,3
 225 269 225 269 283 274 c 1,4,-1
 283 440 l 1,5,6
 225 446 225 446 169.5 472.5 c 128,-1,7
 114 499 114 499 72.5 557 c 128,-1,8
 31 615 31 615 15 714 c 1,9,-1
 110 714 l 1,10,11
 126 635 126 635 164 582.5 c 128,-1,12
 202 530 202 530 283 519 c 1,13,-1
 283 714 l 1,14,-1
 379 714 l 1,15,-1
 379 519 l 1,16,17
 460 530 460 530 498 582.5 c 128,-1,18
 536 635 536 635 552 714 c 1,19,-1
 647 714 l 1,20,21
 631 615 631 615 589.5 557 c 128,-1,22
 548 499 548 499 493 472.5 c 128,-1,23
 438 446 438 446 379 440 c 1,24,-1
 379 274 l 1,25,26
 438 269 438 269 493 242 c 128,-1,27
 548 215 548 215 589.5 157 c 128,-1,28
 631 99 631 99 647 0 c 1,29,-1
 552 0 l 1,30,31
 536 79 536 79 498 131.5 c 128,-1,32
 460 184 460 184 379 195 c 1,33,-1
 379 0 l 1,34,-1
 283 0 l 1,35,-1
 283 195 l 1,36,37
 202 184 202 184 164 131.5 c 128,-1,38
 126 79 126 79 110 0 c 1,39,-1
 15 0 l 1,0,1
EndSplineSet
Validated: 1
EndChar

StartChar: uni16F0
Encoding: 5872 5872 85
Width: 602
Flags: W
LayerCount: 2
Fore
SplineSet
254 0 m 1,0,-1
 254 133 l 1,1,2
 195 135 195 135 148.5 163 c 128,-1,3
 102 191 102 191 76 241 c 128,-1,4
 50 291 50 291 50 356 c 0,5,6
 50 422 50 422 76 471 c 128,-1,7
 102 520 102 520 148.5 548 c 128,-1,8
 195 576 195 576 256 578 c 1,9,-1
 256 714 l 1,10,-1
 346 714 l 1,11,-1
 346 578 l 1,12,13
 407 576 407 576 453.5 548 c 128,-1,14
 500 520 500 520 526 471 c 128,-1,15
 552 422 552 422 552 356 c 0,16,17
 552 291 552 291 525.5 241 c 128,-1,18
 499 191 499 191 452.5 163 c 128,-1,19
 406 135 406 135 346 133 c 1,20,-1
 346 0 l 1,21,-1
 254 0 l 1,0,-1
256 206 m 1,22,-1
 256 504 l 1,23,24
 203 497 203 497 173 461.5 c 128,-1,25
 143 426 143 426 143 357 c 0,26,27
 143 285 143 285 173.5 249.5 c 128,-1,28
 204 214 204 214 256 206 c 1,22,-1
346 206 m 1,29,30
 399 214 399 214 429 249.5 c 128,-1,31
 459 285 459 285 459 357 c 0,32,33
 459 426 459 426 429 461.5 c 128,-1,34
 399 497 399 497 346 504 c 1,35,-1
 346 206 l 1,29,30
EndSplineSet
Validated: 1
EndChar

StartChar: uni16F1
Encoding: 5873 5873 86
Width: 516
Flags: W
LayerCount: 2
Fore
SplineSet
97 0 m 1,0,-1
 97 714 l 1,1,-1
 187 714 l 1,2,-1
 187 352 l 1,3,-1
 328 423 l 1,4,-1
 506 0 l 1,5,-1
 406 0 l 1,6,-1
 273 310 l 1,7,-1
 187 266 l 1,8,-1
 187 0 l 1,9,-1
 97 0 l 1,0,-1
EndSplineSet
Validated: 1
EndChar

StartChar: uni16F2
Encoding: 5874 5874 87
Width: 552
Flags: W
LayerCount: 2
Fore
SplineSet
97 0 m 1,0,-1
 97 500 l 1,1,-1
 187 500 l 1,2,-1
 365 346 l 1,3,-1
 365 714 l 1,4,-1
 455 714 l 1,5,-1
 455 233 l 1,6,-1
 365 233 l 1,7,-1
 187 385 l 1,8,-1
 187 0 l 1,9,-1
 97 0 l 1,0,-1
EndSplineSet
Validated: 1
EndChar

StartChar: uni16F3
Encoding: 5875 5875 88
Width: 456
Flags: W
LayerCount: 2
Fore
SplineSet
183 0 m 1,0,-1
 183 380 l 1,1,-1
 35 511 l 1,2,-1
 35 585 l 1,3,-1
 183 714 l 1,4,-1
 273 714 l 1,5,-1
 421 585 l 1,6,-1
 421 511 l 1,7,-1
 273 380 l 1,8,-1
 273 0 l 1,9,-1
 183 0 l 1,0,-1
183 469 m 1,10,-1
 183 626 l 1,11,-1
 96 548 l 1,12,-1
 183 469 l 1,10,-1
273 469 m 1,13,-1
 359 548 l 1,14,-1
 273 626 l 1,15,-1
 273 469 l 1,13,-1
EndSplineSet
Validated: 1
EndChar

StartChar: uni16F4
Encoding: 5876 5876 89
Width: 553
Flags: W
LayerCount: 2
Fore
SplineSet
365 0 m 1,0,-1
 365 352 l 1,1,-1
 187 284 l 1,2,-1
 187 209 l 1,3,-1
 97 209 l 1,4,-1
 97 250 l 1,5,-1
 62 237 l 1,6,-1
 35 306 l 1,7,-1
 97 330 l 1,8,-1
 97 714 l 1,9,-1
 187 714 l 1,10,-1
 187 365 l 1,11,-1
 365 433 l 1,12,-1
 365 510 l 1,13,-1
 455 510 l 1,14,-1
 455 468 l 1,15,-1
 490 482 l 1,16,-1
 518 410 l 1,17,-1
 455 386 l 1,18,-1
 455 0 l 1,19,-1
 365 0 l 1,0,-1
EndSplineSet
Validated: 1
EndChar

StartChar: uni16F5
Encoding: 5877 5877 90
Width: 372
Flags: W
LayerCount: 2
Fore
SplineSet
176 0 m 1,0,-1
 80 92 l 1,1,-1
 80 146 l 1,2,-1
 176 238 l 1,3,-1
 80 330 l 1,4,-1
 80 384 l 1,5,-1
 176 476 l 1,6,-1
 80 568 l 1,7,-1
 80 622 l 1,8,-1
 176 714 l 1,9,-1
 292 714 l 1,10,-1
 171 595 l 1,11,-1
 266 503 l 1,12,-1
 266 449 l 1,13,-1
 171 357 l 1,14,-1
 266 265 l 1,15,-1
 266 211 l 1,16,-1
 171 119 l 1,17,-1
 292 0 l 1,18,-1
 176 0 l 1,0,-1
EndSplineSet
Validated: 1
EndChar

StartChar: uni16F6
Encoding: 5878 5878 91
Width: 474
Flags: W
LayerCount: 2
Fore
SplineSet
346 0 m 1,0,-1
 216 296 l 1,1,-1
 95 209 l 1,2,-1
 50 268 l 1,3,-1
 186 367 l 1,4,-1
 35 714 l 1,5,-1
 132 714 l 1,6,-1
 258 420 l 1,7,-1
 378 507 l 1,8,-1
 424 445 l 1,9,-1
 289 348 l 1,10,-1
 439 0 l 1,11,-1
 346 0 l 1,0,-1
EndSplineSet
Validated: 1
EndChar

StartChar: uni16F7
Encoding: 5879 5879 92
Width: 504
Flags: W
LayerCount: 2
Fore
SplineSet
97 0 m 1,0,-1
 97 714 l 1,1,-1
 187 714 l 1,2,-1
 187 506 l 1,3,4
 216 505 216 505 251.5 492.5 c 128,-1,5
 287 480 287 480 322.5 453.5 c 128,-1,6
 358 427 358 427 388 384 c 128,-1,7
 418 341 418 341 436 277.5 c 128,-1,8
 454 214 454 214 454 128 c 2,9,-1
 454 0 l 1,10,-1
 361 0 l 1,11,-1
 361 134 l 2,12,13
 361 256 361 256 316 333 c 128,-1,14
 271 410 271 410 187 423 c 1,15,-1
 187 0 l 1,16,-1
 97 0 l 1,0,-1
EndSplineSet
Validated: 1
EndChar

StartChar: uni16F8
Encoding: 5880 5880 93
Width: 566
Flags: W
LayerCount: 2
Fore
SplineSet
10 0 m 1,0,-1
 238 328 l 1,1,-1
 238 714 l 1,2,-1
 328 714 l 1,3,-1
 328 328 l 1,4,-1
 556 0 l 1,5,-1
 448 0 l 1,6,-1
 284 240 l 1,7,-1
 118 0 l 1,8,-1
 10 0 l 1,0,-1
EndSplineSet
Validated: 1
EndChar
